<mxfile host="app.diagrams.net" modified="2023-12-20T09:05:57.689Z" agent="Mozilla/5.0 (Windows NT 10.0; Win64; x64) AppleWebKit/537.36 (KHTML, like Gecko) Chrome/120.0.0.0 Safari/537.36" etag="mWovgHuLgu-u-RfCJhZ9" version="22.1.11" type="github">
  <diagram name="페이지-1" id="Fll2SXyJmTGVgI3FMVlQ">
    <mxGraphModel dx="909" dy="542" grid="0" gridSize="10" guides="1" tooltips="1" connect="1" arrows="1" fold="1" page="1" pageScale="1" pageWidth="827" pageHeight="1169" math="0" shadow="0">
      <root>
        <mxCell id="0" />
        <mxCell id="1" parent="0" />
        <mxCell id="sD-le9rKMJowbdxNYxYG-1" value="AWS Cloud" style="points=[[0,0],[0.25,0],[0.5,0],[0.75,0],[1,0],[1,0.25],[1,0.5],[1,0.75],[1,1],[0.75,1],[0.5,1],[0.25,1],[0,1],[0,0.75],[0,0.5],[0,0.25]];outlineConnect=0;gradientColor=none;html=1;whiteSpace=wrap;fontSize=12;fontStyle=0;container=1;pointerEvents=0;collapsible=0;recursiveResize=0;shape=mxgraph.aws4.group;grIcon=mxgraph.aws4.group_aws_cloud;strokeColor=#232F3E;fillColor=none;verticalAlign=top;align=left;spacingLeft=30;fontColor=#232F3E;dashed=0;" vertex="1" parent="1">
          <mxGeometry x="124" y="97" width="534" height="331" as="geometry" />
        </mxCell>
        <mxCell id="sD-le9rKMJowbdxNYxYG-11" value="Public subnet" style="points=[[0,0],[0.25,0],[0.5,0],[0.75,0],[1,0],[1,0.25],[1,0.5],[1,0.75],[1,1],[0.75,1],[0.5,1],[0.25,1],[0,1],[0,0.75],[0,0.5],[0,0.25]];outlineConnect=0;gradientColor=none;html=1;whiteSpace=wrap;fontSize=12;fontStyle=0;container=1;pointerEvents=0;collapsible=0;recursiveResize=0;shape=mxgraph.aws4.group;grIcon=mxgraph.aws4.group_security_group;grStroke=0;strokeColor=#7AA116;fillColor=#F2F6E8;verticalAlign=top;align=left;spacingLeft=30;fontColor=#248814;dashed=0;" vertex="1" parent="sD-le9rKMJowbdxNYxYG-1">
          <mxGeometry x="14" y="41" width="96" height="260" as="geometry" />
        </mxCell>
        <mxCell id="sD-le9rKMJowbdxNYxYG-12" value="" style="sketch=0;outlineConnect=0;fontColor=#232F3E;gradientColor=none;fillColor=#E7157B;strokeColor=none;dashed=0;verticalLabelPosition=bottom;verticalAlign=top;align=center;html=1;fontSize=12;fontStyle=0;aspect=fixed;pointerEvents=1;shape=mxgraph.aws4.endpoint;" vertex="1" parent="sD-le9rKMJowbdxNYxYG-11">
          <mxGeometry x="25" y="102" width="50" height="50" as="geometry" />
        </mxCell>
        <mxCell id="sD-le9rKMJowbdxNYxYG-13" value="" style="html=1;whiteSpace=wrap;shape=isoCube2;backgroundOutline=1;isoAngle=15;" vertex="1" parent="sD-le9rKMJowbdxNYxYG-11">
          <mxGeometry x="30.5" y="180" width="39" height="43" as="geometry" />
        </mxCell>
        <mxCell id="sD-le9rKMJowbdxNYxYG-14" value="Service Discovery" style="text;html=1;strokeColor=none;fillColor=none;align=center;verticalAlign=middle;whiteSpace=wrap;rounded=0;" vertex="1" parent="sD-le9rKMJowbdxNYxYG-11">
          <mxGeometry x="18" y="230" width="60" height="30" as="geometry" />
        </mxCell>
        <mxCell id="sD-le9rKMJowbdxNYxYG-23" style="edgeStyle=orthogonalEdgeStyle;rounded=0;orthogonalLoop=1;jettySize=auto;html=1;entryX=0.5;entryY=0;entryDx=0;entryDy=0;entryPerimeter=0;" edge="1" parent="sD-le9rKMJowbdxNYxYG-11" source="sD-le9rKMJowbdxNYxYG-12" target="sD-le9rKMJowbdxNYxYG-13">
          <mxGeometry relative="1" as="geometry" />
        </mxCell>
        <mxCell id="sD-le9rKMJowbdxNYxYG-7" value="Private subnet" style="points=[[0,0],[0.25,0],[0.5,0],[0.75,0],[1,0],[1,0.25],[1,0.5],[1,0.75],[1,1],[0.75,1],[0.5,1],[0.25,1],[0,1],[0,0.75],[0,0.5],[0,0.25]];outlineConnect=0;gradientColor=none;html=1;whiteSpace=wrap;fontSize=12;fontStyle=0;container=1;pointerEvents=0;collapsible=0;recursiveResize=0;shape=mxgraph.aws4.group;grIcon=mxgraph.aws4.group_security_group;grStroke=0;strokeColor=#00A4A6;fillColor=#E6F6F7;verticalAlign=top;align=left;spacingLeft=30;fontColor=#147EBA;dashed=0;" vertex="1" parent="sD-le9rKMJowbdxNYxYG-1">
          <mxGeometry x="122" y="37" width="130" height="88" as="geometry" />
        </mxCell>
        <mxCell id="sD-le9rKMJowbdxNYxYG-16" value="" style="html=1;whiteSpace=wrap;shape=isoCube2;backgroundOutline=1;isoAngle=15;" vertex="1" parent="sD-le9rKMJowbdxNYxYG-7">
          <mxGeometry x="29" y="32" width="25" height="28" as="geometry" />
        </mxCell>
        <mxCell id="sD-le9rKMJowbdxNYxYG-17" value="" style="html=1;whiteSpace=wrap;shape=isoCube2;backgroundOutline=1;isoAngle=15;" vertex="1" parent="sD-le9rKMJowbdxNYxYG-7">
          <mxGeometry x="79" y="32" width="25" height="28" as="geometry" />
        </mxCell>
        <mxCell id="sD-le9rKMJowbdxNYxYG-18" value="자원1" style="text;html=1;strokeColor=none;fillColor=none;align=center;verticalAlign=middle;whiteSpace=wrap;rounded=0;" vertex="1" parent="sD-le9rKMJowbdxNYxYG-7">
          <mxGeometry x="9" y="58" width="60" height="30" as="geometry" />
        </mxCell>
        <mxCell id="sD-le9rKMJowbdxNYxYG-19" value="자원2" style="text;html=1;strokeColor=none;fillColor=none;align=center;verticalAlign=middle;whiteSpace=wrap;rounded=0;" vertex="1" parent="sD-le9rKMJowbdxNYxYG-7">
          <mxGeometry x="60" y="58" width="60" height="30" as="geometry" />
        </mxCell>
        <mxCell id="sD-le9rKMJowbdxNYxYG-20" value="" style="verticalLabelPosition=bottom;verticalAlign=top;html=1;shape=mxgraph.basic.8_point_star;fillColor=#3333FF;strokeColor=#6c8ebf;" vertex="1" parent="sD-le9rKMJowbdxNYxYG-7">
          <mxGeometry x="38" y="30.5" width="36" height="27" as="geometry" />
        </mxCell>
        <mxCell id="sD-le9rKMJowbdxNYxYG-21" value="" style="verticalLabelPosition=bottom;verticalAlign=top;html=1;shape=mxgraph.basic.8_point_star;fillColor=#3333FF;strokeColor=#6c8ebf;" vertex="1" parent="sD-le9rKMJowbdxNYxYG-7">
          <mxGeometry x="81" y="30.5" width="36" height="27" as="geometry" />
        </mxCell>
        <mxCell id="sD-le9rKMJowbdxNYxYG-9" value="Private subnet" style="points=[[0,0],[0.25,0],[0.5,0],[0.75,0],[1,0],[1,0.25],[1,0.5],[1,0.75],[1,1],[0.75,1],[0.5,1],[0.25,1],[0,1],[0,0.75],[0,0.5],[0,0.25]];outlineConnect=0;gradientColor=none;html=1;whiteSpace=wrap;fontSize=12;fontStyle=0;container=1;pointerEvents=0;collapsible=0;recursiveResize=0;shape=mxgraph.aws4.group;grIcon=mxgraph.aws4.group_security_group;grStroke=0;strokeColor=#00A4A6;fillColor=#E6F6F7;verticalAlign=top;align=left;spacingLeft=30;fontColor=#147EBA;dashed=0;" vertex="1" parent="sD-le9rKMJowbdxNYxYG-1">
          <mxGeometry x="122" y="130" width="130" height="76" as="geometry" />
        </mxCell>
        <mxCell id="sD-le9rKMJowbdxNYxYG-47" value="" style="html=1;whiteSpace=wrap;shape=isoCube2;backgroundOutline=1;isoAngle=15;" vertex="1" parent="sD-le9rKMJowbdxNYxYG-9">
          <mxGeometry x="72" y="37.5" width="25" height="28" as="geometry" />
        </mxCell>
        <mxCell id="sD-le9rKMJowbdxNYxYG-48" value="" style="verticalLabelPosition=bottom;verticalAlign=top;html=1;shape=mxgraph.basic.8_point_star;fillColor=#3333FF;strokeColor=#6c8ebf;" vertex="1" parent="sD-le9rKMJowbdxNYxYG-9">
          <mxGeometry x="81" y="36" width="36" height="27" as="geometry" />
        </mxCell>
        <mxCell id="sD-le9rKMJowbdxNYxYG-49" value="" style="html=1;whiteSpace=wrap;shape=isoCube2;backgroundOutline=1;isoAngle=15;" vertex="1" parent="sD-le9rKMJowbdxNYxYG-9">
          <mxGeometry x="29" y="36" width="25" height="28" as="geometry" />
        </mxCell>
        <mxCell id="sD-le9rKMJowbdxNYxYG-10" value="Private subnet" style="points=[[0,0],[0.25,0],[0.5,0],[0.75,0],[1,0],[1,0.25],[1,0.5],[1,0.75],[1,1],[0.75,1],[0.5,1],[0.25,1],[0,1],[0,0.75],[0,0.5],[0,0.25]];outlineConnect=0;gradientColor=none;html=1;whiteSpace=wrap;fontSize=12;fontStyle=0;container=1;pointerEvents=0;collapsible=0;recursiveResize=0;shape=mxgraph.aws4.group;grIcon=mxgraph.aws4.group_security_group;grStroke=0;strokeColor=#00A4A6;fillColor=#E6F6F7;verticalAlign=top;align=left;spacingLeft=30;fontColor=#147EBA;dashed=0;" vertex="1" parent="sD-le9rKMJowbdxNYxYG-1">
          <mxGeometry x="121" y="220" width="130" height="76" as="geometry" />
        </mxCell>
        <mxCell id="sD-le9rKMJowbdxNYxYG-50" value="" style="html=1;whiteSpace=wrap;shape=isoCube2;backgroundOutline=1;isoAngle=15;" vertex="1" parent="sD-le9rKMJowbdxNYxYG-10">
          <mxGeometry x="27.5" y="37" width="25" height="28" as="geometry" />
        </mxCell>
        <mxCell id="sD-le9rKMJowbdxNYxYG-51" value="" style="html=1;whiteSpace=wrap;shape=isoCube2;backgroundOutline=1;isoAngle=15;" vertex="1" parent="sD-le9rKMJowbdxNYxYG-10">
          <mxGeometry x="78" y="37" width="25" height="28" as="geometry" />
        </mxCell>
        <mxCell id="sD-le9rKMJowbdxNYxYG-40" style="edgeStyle=orthogonalEdgeStyle;rounded=0;orthogonalLoop=1;jettySize=auto;html=1;" edge="1" parent="sD-le9rKMJowbdxNYxYG-1" source="sD-le9rKMJowbdxNYxYG-24" target="sD-le9rKMJowbdxNYxYG-7">
          <mxGeometry relative="1" as="geometry" />
        </mxCell>
        <mxCell id="sD-le9rKMJowbdxNYxYG-41" style="edgeStyle=orthogonalEdgeStyle;rounded=0;orthogonalLoop=1;jettySize=auto;html=1;entryX=1;entryY=0.5;entryDx=0;entryDy=0;" edge="1" parent="sD-le9rKMJowbdxNYxYG-1" source="sD-le9rKMJowbdxNYxYG-24" target="sD-le9rKMJowbdxNYxYG-9">
          <mxGeometry relative="1" as="geometry" />
        </mxCell>
        <mxCell id="sD-le9rKMJowbdxNYxYG-42" style="edgeStyle=orthogonalEdgeStyle;rounded=0;orthogonalLoop=1;jettySize=auto;html=1;entryX=1;entryY=0.5;entryDx=0;entryDy=0;" edge="1" parent="sD-le9rKMJowbdxNYxYG-1" source="sD-le9rKMJowbdxNYxYG-24" target="sD-le9rKMJowbdxNYxYG-10">
          <mxGeometry relative="1" as="geometry" />
        </mxCell>
        <mxCell id="sD-le9rKMJowbdxNYxYG-24" value="Registry" style="points=[[0,0],[0.25,0],[0.5,0],[0.75,0],[1,0],[1,0.25],[1,0.5],[1,0.75],[1,1],[0.75,1],[0.5,1],[0.25,1],[0,1],[0,0.75],[0,0.5],[0,0.25]];outlineConnect=0;gradientColor=none;html=1;whiteSpace=wrap;fontSize=12;fontStyle=0;container=1;pointerEvents=0;collapsible=0;recursiveResize=0;shape=mxgraph.aws4.group;grIcon=mxgraph.aws4.group_security_group;grStroke=0;strokeColor=#00A4A6;fillColor=#E6F6F7;verticalAlign=top;align=left;spacingLeft=30;fontColor=#147EBA;dashed=0;" vertex="1" parent="sD-le9rKMJowbdxNYxYG-1">
          <mxGeometry x="372" y="37" width="130" height="90" as="geometry" />
        </mxCell>
        <mxCell id="sD-le9rKMJowbdxNYxYG-25" value="" style="html=1;whiteSpace=wrap;shape=isoCube2;backgroundOutline=1;isoAngle=15;" vertex="1" parent="sD-le9rKMJowbdxNYxYG-24">
          <mxGeometry x="16" y="32" width="25" height="28" as="geometry" />
        </mxCell>
        <mxCell id="sD-le9rKMJowbdxNYxYG-28" value="" style="html=1;whiteSpace=wrap;shape=isoCube2;backgroundOutline=1;isoAngle=15;" vertex="1" parent="sD-le9rKMJowbdxNYxYG-24">
          <mxGeometry x="54" y="32" width="25" height="28" as="geometry" />
        </mxCell>
        <mxCell id="sD-le9rKMJowbdxNYxYG-29" value="" style="html=1;whiteSpace=wrap;shape=isoCube2;backgroundOutline=1;isoAngle=15;" vertex="1" parent="sD-le9rKMJowbdxNYxYG-24">
          <mxGeometry x="88" y="32" width="25" height="28" as="geometry" />
        </mxCell>
        <mxCell id="sD-le9rKMJowbdxNYxYG-30" value="배포 가능한 컨테이너" style="text;html=1;strokeColor=none;fillColor=none;align=center;verticalAlign=middle;whiteSpace=wrap;rounded=0;" vertex="1" parent="sD-le9rKMJowbdxNYxYG-24">
          <mxGeometry x="22" y="67" width="79" height="30" as="geometry" />
        </mxCell>
        <mxCell id="sD-le9rKMJowbdxNYxYG-45" style="edgeStyle=orthogonalEdgeStyle;rounded=0;orthogonalLoop=1;jettySize=auto;html=1;entryX=0.5;entryY=1;entryDx=0;entryDy=0;" edge="1" parent="sD-le9rKMJowbdxNYxYG-1" source="sD-le9rKMJowbdxNYxYG-31" target="sD-le9rKMJowbdxNYxYG-30">
          <mxGeometry relative="1" as="geometry" />
        </mxCell>
        <mxCell id="sD-le9rKMJowbdxNYxYG-31" value="" style="fillColor=none;strokeColor=#147EBA;dashed=1;verticalAlign=top;fontStyle=0;fontColor=#147EBA;whiteSpace=wrap;html=1;" vertex="1" parent="sD-le9rKMJowbdxNYxYG-1">
          <mxGeometry x="372" y="210" width="130" height="69" as="geometry" />
        </mxCell>
        <mxCell id="sD-le9rKMJowbdxNYxYG-32" value="" style="html=1;whiteSpace=wrap;shape=isoCube2;backgroundOutline=1;isoAngle=15;" vertex="1" parent="sD-le9rKMJowbdxNYxYG-1">
          <mxGeometry x="389" y="221.5" width="25" height="28" as="geometry" />
        </mxCell>
        <mxCell id="sD-le9rKMJowbdxNYxYG-33" value="" style="verticalLabelPosition=bottom;verticalAlign=top;html=1;shape=mxgraph.basic.8_point_star;fillColor=#3333FF;strokeColor=#6c8ebf;" vertex="1" parent="sD-le9rKMJowbdxNYxYG-1">
          <mxGeometry x="398" y="220" width="36" height="27" as="geometry" />
        </mxCell>
        <mxCell id="sD-le9rKMJowbdxNYxYG-34" value="" style="html=1;whiteSpace=wrap;shape=isoCube2;backgroundOutline=1;isoAngle=15;" vertex="1" parent="sD-le9rKMJowbdxNYxYG-1">
          <mxGeometry x="452" y="221.5" width="25" height="28" as="geometry" />
        </mxCell>
        <mxCell id="sD-le9rKMJowbdxNYxYG-35" value="컨테이너1" style="text;html=1;strokeColor=none;fillColor=none;align=center;verticalAlign=middle;whiteSpace=wrap;rounded=0;" vertex="1" parent="sD-le9rKMJowbdxNYxYG-1">
          <mxGeometry x="362" y="253" width="79" height="30" as="geometry" />
        </mxCell>
        <mxCell id="sD-le9rKMJowbdxNYxYG-36" value="컨테이너2" style="text;html=1;strokeColor=none;fillColor=none;align=center;verticalAlign=middle;whiteSpace=wrap;rounded=0;" vertex="1" parent="sD-le9rKMJowbdxNYxYG-1">
          <mxGeometry x="429" y="253" width="79" height="30" as="geometry" />
        </mxCell>
        <mxCell id="sD-le9rKMJowbdxNYxYG-38" value="TLS" style="text;html=1;strokeColor=none;fillColor=none;align=center;verticalAlign=middle;whiteSpace=wrap;rounded=0;" vertex="1" parent="sD-le9rKMJowbdxNYxYG-1">
          <mxGeometry x="-48" y="141" width="60" height="30" as="geometry" />
        </mxCell>
        <mxCell id="sD-le9rKMJowbdxNYxYG-43" value="배포" style="text;html=1;strokeColor=none;fillColor=none;align=center;verticalAlign=middle;whiteSpace=wrap;rounded=0;" vertex="1" parent="sD-le9rKMJowbdxNYxYG-1">
          <mxGeometry x="273" y="49" width="60" height="30" as="geometry" />
        </mxCell>
        <mxCell id="sD-le9rKMJowbdxNYxYG-46" value="등록" style="text;html=1;strokeColor=none;fillColor=none;align=center;verticalAlign=middle;whiteSpace=wrap;rounded=0;" vertex="1" parent="sD-le9rKMJowbdxNYxYG-1">
          <mxGeometry x="438.5" y="156" width="60" height="30" as="geometry" />
        </mxCell>
        <mxCell id="sD-le9rKMJowbdxNYxYG-52" value=".&lt;br&gt;." style="text;html=1;strokeColor=none;fillColor=none;align=center;verticalAlign=middle;whiteSpace=wrap;rounded=0;" vertex="1" parent="sD-le9rKMJowbdxNYxYG-1">
          <mxGeometry x="153" y="294" width="60" height="30" as="geometry" />
        </mxCell>
        <mxCell id="sD-le9rKMJowbdxNYxYG-15" value="사용자" style="sketch=0;outlineConnect=0;fontColor=#232F3E;gradientColor=none;fillColor=#232F3D;strokeColor=none;dashed=0;verticalLabelPosition=bottom;verticalAlign=top;align=center;html=1;fontSize=12;fontStyle=0;aspect=fixed;pointerEvents=1;shape=mxgraph.aws4.users;" vertex="1" parent="1">
          <mxGeometry x="37" y="241.5" width="47" height="47" as="geometry" />
        </mxCell>
        <mxCell id="sD-le9rKMJowbdxNYxYG-22" style="edgeStyle=orthogonalEdgeStyle;rounded=0;orthogonalLoop=1;jettySize=auto;html=1;" edge="1" parent="1" source="sD-le9rKMJowbdxNYxYG-15" target="sD-le9rKMJowbdxNYxYG-12">
          <mxGeometry relative="1" as="geometry" />
        </mxCell>
        <mxCell id="sD-le9rKMJowbdxNYxYG-44" style="edgeStyle=orthogonalEdgeStyle;rounded=0;orthogonalLoop=1;jettySize=auto;html=1;" edge="1" parent="1" source="sD-le9rKMJowbdxNYxYG-37" target="sD-le9rKMJowbdxNYxYG-31">
          <mxGeometry relative="1" as="geometry" />
        </mxCell>
        <mxCell id="sD-le9rKMJowbdxNYxYG-37" value="개발자" style="sketch=0;outlineConnect=0;fontColor=#232F3E;gradientColor=none;fillColor=#232F3D;strokeColor=none;dashed=0;verticalLabelPosition=bottom;verticalAlign=top;align=center;html=1;fontSize=12;fontStyle=0;aspect=fixed;pointerEvents=1;shape=mxgraph.aws4.users;" vertex="1" parent="1">
          <mxGeometry x="693" y="318" width="47" height="47" as="geometry" />
        </mxCell>
      </root>
    </mxGraphModel>
  </diagram>
</mxfile>
